<svg width="768" height="768" viewBox="0 0 768 768" fill="none" xmlns="http://www.w3.org/2000/svg">
<path d="M95.7567 522.938C100.462 534.811 101.51 547.814 98.7648 560.284L64.6848 665.563C63.5869 670.904 63.8708 676.433 65.5097 681.631C67.1487 686.833 70.0884 691.525 74.0502 695.27C78.0121 699.013 82.8644 701.683 88.1472 703.024C93.43 704.368 98.9683 704.34 104.237 702.94L213.453 671.005C225.22 668.67 237.406 669.689 248.621 673.948C316.953 705.858 394.361 712.61 467.185 693.012C540.012 673.41 603.574 628.72 646.659 566.822C689.744 504.925 709.586 429.801 702.678 354.701C695.773 279.602 662.564 209.355 608.912 156.354C555.26 103.353 484.611 71.0051 409.435 65.0164C334.255 59.0281 259.377 79.784 198.011 123.623C136.645 167.461 92.7339 231.565 74.0255 304.624C55.317 377.685 63.0134 455.002 95.7567 522.938Z" stroke="#FF6C02" stroke-width="39.36" stroke-linecap="round" stroke-linejoin="round"/>
<mask id="mask0_60_232" style="mask-type:alpha" maskUnits="userSpaceOnUse" x="44" y="44" width="680" height="680">
<path d="M95.7567 522.938C100.462 534.811 101.51 547.814 98.7648 560.284L64.6848 665.563C63.5869 670.904 63.8708 676.433 65.5097 681.631C67.1487 686.833 70.0884 691.525 74.0502 695.27C78.0121 699.013 82.8644 701.683 88.1472 703.024C93.43 704.368 98.9683 704.34 104.237 702.94L213.453 671.005C225.22 668.67 237.406 669.689 248.621 673.948C316.953 705.858 394.361 712.61 467.185 693.012C540.012 673.41 603.574 628.72 646.659 566.822C689.744 504.925 709.586 429.801 702.678 354.701C695.773 279.602 662.564 209.355 608.912 156.354C555.26 103.353 484.611 71.0051 409.435 65.0164C334.255 59.0281 259.377 79.784 198.011 123.623C136.645 167.461 92.7339 231.565 74.0255 304.624C55.317 377.685 63.0134 455.002 95.7567 522.938Z" fill="#FAFAFA" stroke="#FF6C02" stroke-width="39.3555" stroke-linecap="round" stroke-linejoin="round"/>
</mask>
<g mask="url(#mask0_60_232)">
<path opacity="0.6" d="M994.718 174.34L177.886 991.168L221.334 1034.62L1038.17 217.788L994.718 174.34Z" fill="#FF6C02"/>
<path opacity="0.5" d="M994.718 88.3383L177.886 905.167L221.334 948.615L1038.17 131.787L994.718 88.3383Z" fill="#FF6C02"/>
<path opacity="0.4" d="M908.673 88.3383L91.8408 905.167L135.289 948.615L952.121 131.787L908.673 88.3383Z" fill="#FF6C02"/>
<path opacity="0.3" d="M822.627 88.3383L5.79541 905.167L49.2438 948.615L866.076 131.787L822.627 88.3383Z" fill="#FF6C02"/>
<path opacity="0.25" d="M798.082 26.8741L-18.75 843.703L24.6984 887.151L841.53 70.3223L798.082 26.8741Z" fill="#FF6C02"/>
<path opacity="0.2" d="M785.809 -46.8479L-31.0229 769.981L12.4254 813.429L829.258 -3.39965L785.809 -46.8479Z" fill="#FF6C02"/>
<path opacity="0.15" d="M748.923 -95.999L-67.9089 720.83L-24.4605 764.278L792.372 -52.5508L748.923 -95.999Z" fill="#FF6C02"/>
<path opacity="0.1" d="M662.877 -95.999L-153.955 720.83L-110.506 764.278L706.326 -52.5508L662.877 -95.999Z" fill="#FF6C02"/>
<path opacity="0.05" d="M576.832 -95.999L-240 720.83L-196.552 764.278L620.28 -52.5508L576.832 -95.999Z" fill="#FF6C02"/>
</g>
</svg>
