<svg width="1024" height="1024" viewBox="0 0 1024 1024" fill="none" xmlns="http://www.w3.org/2000/svg">
<rect width="1024" height="1024" rx="256" fill="#F9FAFB"/>
<path fill-rule="evenodd" clip-rule="evenodd" d="M512 232.182C357.461 232.182 232.182 357.461 232.182 512.001C232.182 666.537 357.461 791.818 512 791.818C666.54 791.818 791.818 666.537 791.818 512.001C791.818 357.461 666.54 232.182 512 232.182ZM188 512.001C188 333.06 333.06 188 512 188C690.94 188 836 333.06 836 512.001C836 690.94 690.94 836 512 836C333.06 836 188 690.94 188 512.001Z" fill="#0C1318"/>
<path fill-rule="evenodd" clip-rule="evenodd" d="M653.133 511.997C653.133 405.336 614.78 299.817 539.582 230.048L562.954 204.857C646.487 282.36 687.499 397.751 687.499 511.997C687.499 626.244 646.487 741.635 562.954 819.137L539.582 793.946C614.78 724.18 653.133 618.659 653.133 511.997Z" fill="#0C1318"/>
<path fill-rule="evenodd" clip-rule="evenodd" d="M340.172 511.997C340.172 397.917 379.846 282.586 460.837 205.043L484.602 229.864C411.772 299.593 374.535 405.172 374.536 511.997C374.536 618.825 411.773 724.404 484.602 794.134L460.837 818.953C379.846 741.41 340.172 626.081 340.172 511.997Z" fill="#0C1318"/>
<path fill-rule="evenodd" clip-rule="evenodd" d="M512.002 338.119C618.494 338.119 726.788 357.812 800.2 398.818C808.484 403.446 811.448 413.913 806.82 422.198C802.192 430.482 791.724 433.447 783.44 428.819C717.175 391.802 615.486 372.483 512.002 372.483C408.516 372.483 306.829 391.802 240.562 428.819C232.278 433.447 221.81 430.482 217.183 422.198C212.555 413.913 215.52 403.446 223.804 398.818C297.214 357.812 405.508 338.119 512.002 338.119Z" fill="#0C1318"/>
<path fill-rule="evenodd" clip-rule="evenodd" d="M512.002 676.452C618.494 676.452 726.788 656.758 800.2 615.75C808.484 611.126 811.448 600.659 806.82 592.374C802.192 584.087 791.724 581.123 783.44 585.751C717.175 622.768 615.486 642.086 512.002 642.086C408.516 642.086 306.829 622.768 240.562 585.751C232.278 581.123 221.81 584.087 217.183 592.374C212.555 600.659 215.52 611.126 223.804 615.75C297.214 656.758 405.508 676.452 512.002 676.452Z" fill="#0C1318"/>
</svg>
